<svg width="13.000000" height="13.000000" viewBox="0 0 13 13" fill="none" xmlns="http://www.w3.org/2000/svg" xmlns:xlink="http://www.w3.org/1999/xlink">
	<desc>
			Created with Pixso.
	</desc>
	<defs/>
	<path id="Vector" d="M12.65 5.32L2.04 5.32L8.39 -0.11C8.49 -0.2 8.43 -0.36 8.3 -0.36L6.69 -0.36C6.62 -0.36 6.55 -0.34 6.5 -0.29L-0.35 5.56C-0.42 5.62 -0.47 5.68 -0.5 5.76C-0.54 5.83 -0.55 5.91 -0.55 5.99C-0.55 6.08 -0.54 6.16 -0.5 6.23C-0.47 6.31 -0.42 6.37 -0.35 6.43L6.54 12.32C6.57 12.34 6.6 12.35 6.63 12.35L8.29 12.35C8.43 12.35 8.49 12.19 8.39 12.1L2.04 6.67L12.65 6.67C12.73 6.67 12.8 6.61 12.8 6.53L12.8 5.46C12.8 5.38 12.73 5.32 12.65 5.32Z" fill="#000000" fill-opacity="0.850000" fill-rule="nonzero"/>
</svg>
