<svg width="21.000000" height="21.000000" viewBox="0 0 21 21" fill="none" xmlns="http://www.w3.org/2000/svg" xmlns:xlink="http://www.w3.org/1999/xlink">
	<desc>
			Created with Pixso.
	</desc>
	<defs/>
	<path id="Vector" d="M10.16 20.24C15.76 20.24 20.41 15.6 20.41 10C20.41 4.4 15.77 -0.25 10.17 -0.25C9.64 -0.25 9.38 0.07 9.38 0.59L9.38 4.49C9.38 4.92 9.67 5.27 10.11 5.27C10.55 5.27 10.85 4.92 10.85 4.49L10.85 1.49C15.27 1.84 18.69 5.5 18.69 10C18.69 11.12 18.48 12.23 18.05 13.27C17.62 14.3 17 15.25 16.2 16.04C15.41 16.83 14.47 17.46 13.43 17.89C12.39 18.32 11.28 18.54 10.16 18.53C5.42 18.53 1.61 14.74 1.62 10C1.63 7.89 2.39 5.97 3.64 4.49C3.95 4.1 3.97 3.63 3.64 3.28C3.31 2.91 2.75 2.94 2.39 3.4C0.85 5.18 -0.08 7.49 -0.08 10C-0.08 15.6 4.56 20.24 10.16 20.24ZM11.77 11.54C12.56 10.72 12.4 9.59 11.45 8.93L6.13 5.22C5.63 4.87 5.11 5.39 5.46 5.9L9.17 11.21C9.83 12.16 10.96 12.34 11.77 11.54Z" fill="#000000" fill-opacity="1.000000" fill-rule="nonzero"/>
</svg>
