<svg width="6.000000" height="11.000000" viewBox="0 0 6 11" fill="none" xmlns="http://www.w3.org/2000/svg" xmlns:xlink="http://www.w3.org/1999/xlink">
	<desc>
			Created with Pixso.
	</desc>
	<defs/>
	<path id="Vector" d="M5.83 1.06L5.83 0.03C5.83 -0.06 5.73 -0.11 5.66 -0.06L-0.38 4.66C-0.43 4.7 -0.47 4.75 -0.5 4.81C-0.53 4.86 -0.54 4.93 -0.54 4.99C-0.54 5.06 -0.53 5.12 -0.5 5.18C-0.47 5.24 -0.43 5.29 -0.38 5.33L5.66 10.05C5.73 10.1 5.83 10.05 5.83 9.96L5.83 8.93C5.83 8.86 5.8 8.8 5.75 8.76L0.93 4.99L5.75 1.23C5.8 1.19 5.83 1.13 5.83 1.06Z" fill="#000000" fill-opacity="1.000000" fill-rule="nonzero"/>
</svg>
